<?xml version="1.0" standalone="no"?>
<!DOCTYPE svg PUBLIC "-//W3C//DTD SVG 20010904//EN"
 "http://www.w3.org/TR/2001/REC-SVG-20010904/DTD/svg10.dtd">
<svg version="1.0" xmlns="http://www.w3.org/2000/svg"
 width="864.000000pt" height="864.000000pt" viewBox="0 0 864.000000 864.000000"
 preserveAspectRatio="xMidYMid meet">
<metadata>
Created by potrace 1.14, written by Peter Selinger 2001-2017
</metadata>
<g transform="translate(0.000000,864.000000) scale(0.100000,-0.100000)"
fill="#000000" stroke="none">
<path d="M4079 8636 c-2 -2 -47 -6 -99 -10 -52 -4 -106 -8 -120 -10 -14 -3
-49 -7 -78 -10 -68 -8 -122 -15 -148 -21 -12 -3 -39 -7 -60 -11 -152 -23 -450
-98 -634 -161 -1296 -441 -2296 -1449 -2725 -2748 -29 -89 -80 -264 -90 -313
-2 -9 -11 -48 -20 -87 -9 -38 -19 -81 -21 -95 -3 -14 -11 -61 -19 -105 -15
-82 -21 -122 -31 -210 -2 -27 -7 -59 -9 -70 -12 -58 -20 -247 -20 -465 0 -279
5 -365 36 -590 11 -78 14 -100 30 -190 6 -30 13 -68 15 -85 14 -77 88 -355
125 -466 92 -281 268 -674 382 -852 20 -31 37 -60 37 -63 0 -12 162 -250 246
-360 102 -135 110 -145 244 -294 495 -549 1135 -966 1840 -1199 234 -78 555
-155 732 -175 13 -2 46 -6 73 -10 275 -38 753 -43 1020 -11 140 17 194 24 221
30 12 3 39 7 60 10 21 3 82 15 134 26 624 130 1215 399 1725 784 66 50 131
100 145 112 14 12 36 31 50 43 168 143 304 281 525 530 90 102 312 419 396
565 19 33 39 68 44 77 45 76 169 331 220 453 150 361 262 779 301 1127 3 29 7
63 9 76 20 125 27 612 12 797 -65 804 -355 1586 -827 2225 -35 47 -66 87 -70
90 -4 3 -11 12 -16 21 -28 50 -260 306 -399 441 -514 498 -1178 873 -1870
1058 -132 36 -319 77 -383 86 -26 3 -49 7 -52 9 -3 2 -34 6 -70 10 -36 4 -67
8 -70 10 -3 2 -43 6 -90 10 -47 4 -94 9 -105 12 -23 5 -591 14 -596 9z"/>
</g>
</svg>
